<svg width="40" height="40" viewBox="0 0 40 40" fill="none" xmlns="http://www.w3.org/2000/svg">
<g filter="url(#filter0_i)">
<path d="M20.1 0.5C30.9 0.5 39.6 9.2 39.6 20C39.6 30.8 30.9 39.5 20.1 39.5C9.4 39.4 0.7 30.8 0.5 20.1C0.6 9.3 9.3 0.6 20.1 0.5ZM20.1 11.5C15.5 11.5 11.7 15.3 11.7 19.9C11.7 24.6 15.4 28.4 20.1 28.5C24.8 28.5 28.5 24.6 28.5 19.9C28.6 15.4 25 11.6 20.5 11.5C20.4 11.5 20.2 11.5 20.1 11.5Z" fill="#2E5BFF"/>
</g>
<defs>
<filter id="filter0_i" x="0.5" y="0.5" width="39.1" height="39" filterUnits="userSpaceOnUse" color-interpolation-filters="sRGB">
<feFlood flood-opacity="0" result="BackgroundImageFix"/>
<feBlend mode="normal" in="SourceGraphic" in2="BackgroundImageFix" result="shape"/>
<feColorMatrix in="SourceAlpha" type="matrix" values="0 0 0 0 0 0 0 0 0 0 0 0 0 0 0 0 0 0 127 0" result="hardAlpha"/>
<feOffset/>
<feGaussianBlur stdDeviation="2"/>
<feComposite in2="hardAlpha" operator="arithmetic" k2="-1" k3="1"/>
<feColorMatrix type="matrix" values="0 0 0 0 0 0 0 0 0 0 0 0 0 0 0 0 0 0 1 0"/>
<feBlend mode="normal" in2="shape" result="effect1_innerShadow"/>
</filter>
</defs>
</svg>
