<?xml version="1.0" encoding="utf-8"?>
<!-- Generator: Adobe Illustrator 25.4.1, SVG Export Plug-In . SVG Version: 6.00 Build 0)  -->
<svg version="1.1" id="Layer_1" xmlns="http://www.w3.org/2000/svg" xmlns:xlink="http://www.w3.org/1999/xlink" x="0px" y="0px"
	 viewBox="0 0 52 52" style="enable-background:new 0 0 52 52;" xml:space="preserve">
<style type="text/css">
	.st0{fill:#2E5BFF;}
</style>
<g id="Schema">
	<g id="Desktop-HD-Copy-2">
		<path id="icon-bagel" class="st0" d="M26.1,6.5c10.8,0,19.5,8.7,19.5,19.5s-8.7,19.5-19.5,19.5C15.4,45.4,6.7,36.8,6.5,26.1
			C6.6,15.3,15.3,6.6,26.1,6.5z M26.1,17.5c-4.6,0-8.4,3.8-8.4,8.4c0,4.7,3.7,8.5,8.4,8.6c4.7,0,8.4-3.9,8.4-8.6c0,0,0,0,0,0
			c0.1-4.5-3.5-8.3-8-8.4C26.4,17.5,26.2,17.5,26.1,17.5z"/>
	</g>
</g>
</svg>
